<?xml version="1.0" encoding="utf-8"?>
<!-- Generator: Adobe Illustrator 24.1.0, SVG Export Plug-In . SVG Version: 6.00 Build 0)  -->
<svg version="1.1" id="Layer_1" xmlns="http://www.w3.org/2000/svg" xmlns:xlink="http://www.w3.org/1999/xlink" x="0px" y="0px"
	 viewBox="0 0 240 68" style="enable-background:new 0 0 240 68;" xml:space="preserve">
<style type="text/css">
	.st0{fill:#242424;}
	.st1{fill:#146EB4;}
	.st2{fill:#FFFFFF;}
</style>
<g>
	<g>
		<g>
			<path class="st0" d="M107.7,16.7v31c0,0.7-0.4,1.1-1.1,1.1h-3.9c-0.7,0-1.1-0.4-1.1-1.1V46c-1.7,2.1-4.3,3.4-7.8,3.4
				c-6.5,0-11.8-5.5-11.8-12.5s5.3-12.5,11.8-12.5c3.5,0,6.1,1.3,7.8,3.4V16.7c0-0.7,0.4-1.1,1.1-1.1h3.9
				C107.3,15.6,107.7,16,107.7,16.7z M101.5,37c0-4-2.9-6.7-6.7-6.7c-3.8,0-6.7,2.7-6.7,6.7s2.9,6.7,6.7,6.7S101.5,41,101.5,37z"/>
			<path class="st0" d="M130.3,25.1c0.7,0,1.1,0.4,1.1,1.1v21.5c0,0.7-0.4,1.1-1.1,1.1h-3.9c-0.7,0-1.1-0.4-1.1-1.1v-1.3
				c-1.4,2-3.6,3.1-6.6,3.1c-4.5,0-7.9-3.4-7.9-9.2V26.2c0-0.7,0.4-1.1,1.1-1.1h3.9c0.7,0,1.1,0.4,1.1,1.1v13.6c0,2.7,1.6,4,3.8,4
				c2.5,0,4.4-1.4,4.4-5V26.2c0-0.7,0.4-1.1,1.1-1.1H130.3L130.3,25.1z"/>
			<path class="st0" d="M155.4,48.8h-4.6c-0.6,0-1-0.2-1.4-0.7l-7.9-10v9.6c0,0.7-0.4,1.1-1.1,1.1h-3.9c-0.7,0-1.1-0.4-1.1-1.1v-31
				c0-0.7,0.4-1.1,1.1-1.1h3.9c0.7,0,1.1,0.4,1.1,1.1v18.8l7.5-9.8c0.3-0.5,0.8-0.7,1.4-0.7h4.6c0.9,0,1.3,0.6,0.7,1.4l-8.1,10.4
				l8.6,10.6C156.6,48.2,156.3,48.8,155.4,48.8z"/>
			<path class="st0" d="M168.2,24.4c5.3,0,9.8,3.1,9.8,9.3v14c0,0.7-0.4,1.1-1.1,1.1h-3.8c-0.7,0-1.1-0.4-1.1-1.1v-0.9
				c-1.4,1.7-3.5,2.7-6.5,2.7c-4.3,0-8.1-2.5-8.1-7.5s3.8-7.5,8.1-7.5c3.1,0,5.2,0.9,6.5,2.1v-2.5c0-2.8-1.5-4-3.7-4
				c-1.8,0-3.2,0.7-3.6,2c-0.3,0.6-0.5,1-1.2,1h-3.9c-0.7,0-1.2-0.4-1.1-1.2C159,27.1,163.2,24.4,168.2,24.4L168.2,24.4z M171.9,42
				c0-1.8-1.7-3-4.4-3s-4,1.2-4,3c0,1.7,1.3,3,4,3S171.9,43.7,171.9,42z"/>
			<path class="st0" d="M191.8,24.4c5.3,0,9.8,3.1,9.8,9.3v14c0,0.7-0.4,1.1-1.1,1.1h-3.8c-0.7,0-1.1-0.4-1.1-1.1v-0.9
				c-1.4,1.7-3.5,2.7-6.5,2.7c-4.3,0-8.1-2.5-8.1-7.5s3.8-7.5,8.1-7.5c3.1,0,5.2,0.9,6.5,2.1v-2.5c0-2.8-1.5-4-3.7-4
				c-1.8,0-3.2,0.7-3.6,2c-0.3,0.6-0.5,1-1.2,1h-3.9c-0.7,0-1.2-0.4-1.1-1.2C182.6,27.1,186.9,24.4,191.8,24.4L191.8,24.4z
				 M195.6,42c0-1.8-1.7-3-4.4-3s-4,1.2-4,3c0,1.7,1.3,3,4,3S195.6,43.7,195.6,42z"/>
			<path class="st0" d="M217.6,24.4c4.5,0,7.9,3.4,7.9,9.2v14.1c0,0.7-0.4,1.1-1.1,1.1h-3.9c-0.7,0-1.1-0.4-1.1-1.1V34.1
				c0-2.7-1.6-4-3.8-4c-2.5,0-4.4,1.4-4.4,5v12.6c0,0.7-0.4,1.1-1.1,1.1H206c-0.7,0-1.1-0.4-1.1-1.1V26.2c0-0.7,0.4-1.1,1.1-1.1h3.9
				c0.7,0,1.1,0.4,1.1,1.1v1.3C212.4,25.5,214.6,24.4,217.6,24.4L217.6,24.4z"/>
		</g>
		<g>
			<path class="st0" d="M231.2,16.7V17c0,0.2-0.1,0.2-0.2,0.2h-2.1v7.2c0,0.2-0.1,0.2-0.2,0.2h-0.4c-0.2,0-0.2-0.1-0.2-0.2v-7.2H226
				c-0.2,0-0.2-0.1-0.2-0.2v-0.3c0-0.2,0.1-0.2,0.2-0.2h2.9h2.1C231.1,16.4,231.2,16.5,231.2,16.7z"/>
			<path class="st0" d="M240,16.7v7.8c0,0.2-0.1,0.2-0.2,0.2h-0.4c-0.2,0-0.2-0.1-0.2-0.2v-6.6l-2.5,5.2c-0.1,0.1-0.1,0.2-0.3,0.2
				H236c-0.1,0-0.2,0-0.3-0.2l-2.5-5.2v6.6c0,0.2-0.1,0.2-0.2,0.2h-0.4c-0.2,0-0.2-0.1-0.2-0.2v-7.8c0-0.2,0.1-0.2,0.2-0.2h0.4h0.3
				c0.1,0,0.2,0,0.3,0.2l2.7,5.7l2.7-5.7c0.1-0.1,0.1-0.2,0.3-0.2h0.4h0.3C239.9,16.4,240,16.5,240,16.7z"/>
		</g>
	</g>
	<g>
		<ellipse class="st1" cx="34.6" cy="34" rx="34.6" ry="34"/>
		<path class="st2" d="M48.2,16.1H20.9c-2.7,0-4.8,2.1-4.8,4.7v26.3c0,2.6,2.2,4.7,4.8,4.7h27.3c2.7,0,4.8-2.1,4.8-4.7V20.9
			C53,18.3,50.9,16.1,48.2,16.1z M34.6,37.1c-6.7,0-12.4-5.1-12.9-11.7c-0.1-0.7,0.2-1.4,0.6-1.9c0.5-0.5,1.1-0.8,1.8-0.9
			c0.7-0.1,1.4,0.2,1.9,0.6c0.5,0.5,0.9,1.1,0.9,1.8c0.3,3.9,3.7,6.9,7.6,6.9c4,0,7.3-3.1,7.6-6.9c0.1-1.4,1.4-2.5,2.8-2.4
			c0.7,0.1,1.3,0.4,1.8,0.9s0.7,1.2,0.6,1.9C46.9,31.9,41.3,37.1,34.6,37.1z"/>
	</g>
</g>
</svg>
